<svg xmlns="http://www.w3.org/2000/svg" xmlns:xlink="http://www.w3.org/1999/xlink" width="1487" height="1290" viewBox="0 0 1487 1290"><title>ШАГ 4 · Завершение западной части</title><desc>Следуйте по ЖЁЛТОЙ линии. Предыдущие шаги показаны серым.</desc><style>text{font-family:Arial,Helvetica,sans-serif}</style><rect width="1487" height="1290" fill="#111722"/><text x="30" y="42" font-size="29" font-weight="800" fill="#edff69">ШАГ 4 · Завершение западной части</text><text x="30" y="76" font-size="20" fill="#e2e6ed">Следуйте по ЖЁЛТОЙ линии. Предыдущие шаги показаны серым.</text><g transform="translate(0 95)"><image x="0" y="0" width="1487" height="1062" xlink:href="../map-background.png"/><g transform="translate(-20 -13)"><g opacity="0.6"><path d="M 691 461 L 717 395 752 319 Q 771 294 797 297 L 861 305 938 279 Q 981 263 987 228 L 997 181 996 106 Q 996 101 1009 103 L 1037 104 Q 1040 104 1040 114 L 1040 145 Q 1040 158 1054 160 L 1106 163 Q 1112 164 1112 156 L 1112 122 Q 1112 112 1105 112 L 1094 113 1071 120 Q 1068 105 1083 100 L 1105 97 L 1170 93 1290 103 Q 1353 115 1355 163 L 1355 259 1349 329 Q 1345 358 1322 364 L 1220 370 Q 1204 368 1206 339 L 1216 307 Q 1222 295 1207 276 L 1198 254 1197 222" fill="none" stroke="#111722" stroke-width="10" stroke-linecap="round" stroke-linejoin="round" /><path d="M 691 461 L 717 395 752 319 Q 771 294 797 297 L 861 305 938 279 Q 981 263 987 228 L 997 181 996 106 Q 996 101 1009 103 L 1037 104 Q 1040 104 1040 114 L 1040 145 Q 1040 158 1054 160 L 1106 163 Q 1112 164 1112 156 L 1112 122 Q 1112 112 1105 112 L 1094 113 1071 120 Q 1068 105 1083 100 L 1105 97 L 1170 93 1290 103 Q 1353 115 1355 163 L 1355 259 1349 329 Q 1345 358 1322 364 L 1220 370 Q 1204 368 1206 339 L 1216 307 Q 1222 295 1207 276 L 1198 254 1197 222" fill="none" stroke="#979da6" stroke-width="5" stroke-linecap="round" stroke-linejoin="round" /><path d="M 1350 267 L 1267 267" fill="none" stroke="#111722" stroke-width="10" stroke-linecap="round" stroke-linejoin="round" /><path d="M 1350 267 L 1267 267" fill="none" stroke="#979da6" stroke-width="5" stroke-linecap="round" stroke-linejoin="round" /><circle cx="1006" cy="100" r="22" fill="#979da6" stroke="#111722" stroke-width="4"/><circle cx="1071" cy="120" r="22" fill="#979da6" stroke="#111722" stroke-width="4"/><circle cx="1289" cy="104" r="22" fill="#979da6" stroke="#111722" stroke-width="4"/><circle cx="1349" cy="263" r="22" fill="#979da6" stroke="#111722" stroke-width="4"/><circle cx="1064" cy="156" r="27" fill="none" stroke="#111722" stroke-width="9"/><circle cx="1064" cy="156" r="27" fill="none" stroke="#979da6" stroke-width="4"/><circle cx="1197" cy="222" r="27" fill="none" stroke="#111722" stroke-width="9"/><circle cx="1197" cy="222" r="27" fill="none" stroke="#979da6" stroke-width="4"/><path transform="translate(747 330) rotate(-65)" d="M -10 -8 L 10 0 -10 8 Z" fill="#979da6" stroke="#111722" stroke-width="2"/><path transform="translate(1190 96) rotate(0)" d="M -10 -8 L 10 0 -10 8 Z" fill="#979da6" stroke="#111722" stroke-width="2"/><path transform="translate(1354 213) rotate(90)" d="M -10 -8 L 10 0 -10 8 Z" fill="#979da6" stroke="#111722" stroke-width="2"/><circle cx="1267" cy="267" r="22" fill="#979da6" stroke="#111722" stroke-width="4"/></g><g opacity="0.6"><path d="M 1197 222 L 1155 227 1113 229 1062 249 1008 265 941 277 886 292 828 324 776 431 723 422 696 445 696 487 669 500 627 497 Q 609 498 603 516 L 598 533 571 530 540 514 515 551 520 572 505 602 Q 487 613 477 590 L 472 557 488 515 467 479 423 423 421 394 486 349 414 386 379 391 383 349" fill="none" stroke="#111722" stroke-width="10" stroke-linecap="round" stroke-linejoin="round" /><path d="M 1197 222 L 1155 227 1113 229 1062 249 1008 265 941 277 886 292 828 324 776 431 723 422 696 445 696 487 669 500 627 497 Q 609 498 603 516 L 598 533 571 530 540 514 515 551 520 572 505 602 Q 487 613 477 590 L 472 557 488 515 467 479 423 423 421 394 486 349 414 386 379 391 383 349" fill="none" stroke="#979da6" stroke-width="5" stroke-linecap="round" stroke-linejoin="round" /><path d="M 1062 249 L 1055 247 Q 1049 243 1044 233 Q 1041 228 1035 228 L 1027 228" fill="none" stroke="#111722" stroke-width="10" stroke-linecap="round" stroke-linejoin="round" /><path d="M 1062 249 L 1055 247 Q 1049 243 1044 233 Q 1041 228 1035 228 L 1027 228" fill="none" stroke="#979da6" stroke-width="5" stroke-linecap="round" stroke-linejoin="round" /><circle cx="540" cy="514" r="22" fill="#979da6" stroke="#111722" stroke-width="4"/><circle cx="423" cy="423" r="22" fill="#979da6" stroke="#111722" stroke-width="4"/><circle cx="1027" cy="228" r="22" fill="#979da6" stroke="#111722" stroke-width="4"/><circle cx="1197" cy="222" r="34" fill="none" stroke="#111722" stroke-width="9"/><circle cx="1197" cy="222" r="34" fill="none" stroke="#979da6" stroke-width="4"/><circle cx="486" cy="349" r="27" fill="none" stroke="#111722" stroke-width="9"/><circle cx="486" cy="349" r="27" fill="none" stroke="#979da6" stroke-width="4"/><path transform="translate(1012 264) rotate(165)" d="M -10 -8 L 10 0 -10 8 Z" fill="#979da6" stroke="#111722" stroke-width="2"/><path transform="translate(650 499) rotate(180)" d="M -10 -8 L 10 0 -10 8 Z" fill="#979da6" stroke="#111722" stroke-width="2"/><path transform="translate(471 488) rotate(-120)" d="M -10 -8 L 10 0 -10 8 Z" fill="#979da6" stroke="#111722" stroke-width="2"/></g><g opacity="0.6"><path d="M 1349 824 L 1341 850 1329 856 1330 901 1322 878 1293 876 1270 875 1252 790 1245 773 1211 763 1130 751 1068 764 1024 753 992 771 947 786 928 790 922 818 904 848 868 871 815 878 810 857 776 850 758 834 749 850 747 881 737 896 733 867 739 839 712 838 705 814 706 780 703 752 748 746 797 738 839 740 841 677" fill="none" stroke="#111722" stroke-width="10" stroke-linecap="round" stroke-linejoin="round" /><path d="M 1349 824 L 1341 850 1329 856 1330 901 1322 878 1293 876 1270 875 1252 790 1245 773 1211 763 1130 751 1068 764 1024 753 992 771 947 786 928 790 922 818 904 848 868 871 815 878 810 857 776 850 758 834 749 850 747 881 737 896 733 867 739 839 712 838 705 814 706 780 703 752 748 746 797 738 839 740 841 677" fill="none" stroke="#979da6" stroke-width="5" stroke-linecap="round" stroke-linejoin="round" /><path d="M 706 753 L 646 738 645 691 650 740 599 745 526 741" fill="none" stroke="#111722" stroke-width="10" stroke-linecap="round" stroke-linejoin="round" /><path d="M 706 753 L 646 738 645 691 650 740 599 745 526 741" fill="none" stroke="#979da6" stroke-width="5" stroke-linecap="round" stroke-linejoin="round" /><path d="M 707 809 L 682 871 677 903 649 926 578 947 539 956 485 971 449 977 432 942 424 904 397 881 363 859 322 831 285 796 252 777 237 736 278 739 306 724 312 700 345 674 376 652" fill="none" stroke="#111722" stroke-width="10" stroke-linecap="round" stroke-linejoin="round" /><path d="M 707 809 L 682 871 677 903 649 926 578 947 539 956 485 971 449 977 432 942 424 904 397 881 363 859 322 831 285 796 252 777 237 736 278 739 306 724 312 700 345 674 376 652" fill="none" stroke="#979da6" stroke-width="5" stroke-linecap="round" stroke-linejoin="round" /><path d="M 554 953 L 575 975 576 1004" fill="none" stroke="#111722" stroke-width="10" stroke-linecap="round" stroke-linejoin="round" /><path d="M 554 953 L 575 975 576 1004" fill="none" stroke="#979da6" stroke-width="5" stroke-linecap="round" stroke-linejoin="round" /><circle cx="1252" cy="790" r="22" fill="#979da6" stroke="#111722" stroke-width="4"/><circle cx="1330" cy="901" r="22" fill="#979da6" stroke="#111722" stroke-width="4"/><circle cx="1024" cy="753" r="22" fill="#979da6" stroke="#111722" stroke-width="4"/><circle cx="526" cy="741" r="22" fill="#979da6" stroke="#111722" stroke-width="4"/><circle cx="576" cy="1004" r="22" fill="#979da6" stroke="#111722" stroke-width="4"/><circle cx="376" cy="652" r="22" fill="#979da6" stroke="#111722" stroke-width="4"/><circle cx="1211" cy="763" r="27" fill="none" stroke="#111722" stroke-width="9"/><circle cx="1211" cy="763" r="27" fill="none" stroke="#979da6" stroke-width="4"/><circle cx="645" cy="691" r="27" fill="none" stroke="#111722" stroke-width="9"/><circle cx="645" cy="691" r="27" fill="none" stroke="#979da6" stroke-width="4"/><path d="M 1349 803 l 21 21 -21 21 -21 -21 Z" fill="#979da6" stroke="#111722" stroke-width="4"/><path transform="translate(1117 753) rotate(180)" d="M -10 -8 L 10 0 -10 8 Z" fill="#979da6" stroke="#111722" stroke-width="2"/><path transform="translate(900 850) rotate(150)" d="M -10 -8 L 10 0 -10 8 Z" fill="#979da6" stroke="#111722" stroke-width="2"/><path transform="translate(473 974) rotate(170)" d="M -10 -8 L 10 0 -10 8 Z" fill="#979da6" stroke="#111722" stroke-width="2"/><path transform="translate(302 812) rotate(-140)" d="M -10 -8 L 10 0 -10 8 Z" fill="#979da6" stroke="#111722" stroke-width="2"/><path d="M 383 349 L 1349 824" fill="none" stroke="#111722" stroke-width="10" stroke-linecap="round" stroke-linejoin="round" stroke-dasharray="15 12"/><path d="M 383 349 L 1349 824" fill="none" stroke="#979da6" stroke-width="5" stroke-linecap="round" stroke-linejoin="round" stroke-dasharray="15 12"/><path transform="translate(855 581) rotate(26)" d="M -10 -8 L 10 0 -10 8 Z" fill="#979da6" stroke="#111722" stroke-width="2"/><circle cx="841" cy="677" r="22" fill="#979da6" stroke="#111722" stroke-width="4"/><path d="M 869 875 L 869 849" fill="none" stroke="#111722" stroke-width="10" stroke-linecap="round" stroke-linejoin="round" /><path d="M 869 875 L 869 849" fill="none" stroke="#979da6" stroke-width="5" stroke-linecap="round" stroke-linejoin="round" /><circle cx="869" cy="849" r="22" fill="#979da6" stroke="#111722" stroke-width="4"/></g><g opacity="1"><path d="M 376 652 L 344 628 321 624 304 650 284 648 272 633 276 602 307 567 330 533 344 504 350 475 337 444 319 423 295 404 287 377 298 335 297 272" fill="none" stroke="#111722" stroke-width="10" stroke-linecap="round" stroke-linejoin="round" /><path d="M 376 652 L 344 628 321 624 304 650 284 648 272 633 276 602 307 567 330 533 344 504 350 475 337 444 319 423 295 404 287 377 298 335 297 272" fill="none" stroke="#ffe45e" stroke-width="5" stroke-linecap="round" stroke-linejoin="round" /><path d="M 296 343 L 282 384 258 420 234 435 230 411 214 382 203 357 180 378 195 411 189 437 174 460 163 487 158 540 140 518 112 513 91 512 86 523 100 550 111 574" fill="none" stroke="#111722" stroke-width="10" stroke-linecap="round" stroke-linejoin="round" /><path d="M 296 343 L 282 384 258 420 234 435 230 411 214 382 203 357 180 378 195 411 189 437 174 460 163 487 158 540 140 518 112 513 91 512 86 523 100 550 111 574" fill="none" stroke="#ffe45e" stroke-width="5" stroke-linecap="round" stroke-linejoin="round" /><circle cx="297" cy="272" r="22" fill="#ffe45e" stroke="#111722" stroke-width="4"/><circle cx="158" cy="540" r="22" fill="#ffe45e" stroke="#111722" stroke-width="4"/><circle cx="189" cy="437" r="22" fill="#ffe45e" stroke="#111722" stroke-width="4"/><circle cx="203" cy="357" r="27" fill="none" stroke="#111722" stroke-width="9"/><circle cx="203" cy="357" r="27" fill="none" stroke="#ffe45e" stroke-width="4"/><path transform="translate(323 544) rotate(-60)" d="M -10 -8 L 10 0 -10 8 Z" fill="#ffe45e" stroke="#111722" stroke-width="2"/><path transform="translate(297 308) rotate(-90)" d="M -10 -8 L 10 0 -10 8 Z" fill="#ffe45e" stroke="#111722" stroke-width="2"/></g></g></g><line x1="25" x2="1462" y1="1177" y2="1177" stroke="#414b59"/><text x="30" y="1210" font-size="20" fill="#e2e6ed">Сплошная линия = пешком    •    Пунктир = телепорт    •    Закрашенный круг = отмеченная остановка</text><text x="30" y="1240" font-size="20" fill="#e2e6ed">Кольца = комнаты с ключ-картами    •    Ромб = точка прибытия из портала</text></svg>